<svg width="118" height="174" viewBox="0 0 118 174" fill="none" xmlns="http://www.w3.org/2000/svg">
<circle cx="31" cy="87" r="3" transform="rotate(90 31 87)" fill="#D3C6C4"/>
<circle cx="31" cy="31" r="3" transform="rotate(90 31 31)" fill="#D3C6C4"/>
<circle cx="31" cy="143" r="3" transform="rotate(90 31 143)" fill="#D3C6C4"/>
<circle cx="31" cy="3" r="3" transform="rotate(90 31 3)" fill="#D3C6C4"/>
<circle cx="31" cy="115" r="3" transform="rotate(90 31 115)" fill="#D3C6C4"/>
<circle cx="31" cy="59" r="3" transform="rotate(90 31 59)" fill="#D3C6C4"/>
<circle cx="31" cy="171" r="3" transform="rotate(90 31 171)" fill="#D3C6C4"/>
<circle cx="87" cy="87" r="3" transform="rotate(90 87 87)" fill="#D3C6C4"/>
<circle cx="87" cy="31" r="3" transform="rotate(90 87 31)" fill="#D3C6C4"/>
<circle cx="87" cy="143" r="3" transform="rotate(90 87 143)" fill="#D3C6C4"/>
<circle cx="87" cy="3" r="3" transform="rotate(90 87 3)" fill="#D3C6C4"/>
<circle cx="87" cy="115" r="3" transform="rotate(90 87 115)" fill="#D3C6C4"/>
<circle cx="87" cy="59" r="3" transform="rotate(90 87 59)" fill="#D3C6C4"/>
<circle cx="87" cy="171" r="3" transform="rotate(90 87 171)" fill="#D3C6C4"/>
<circle cx="3" cy="87" r="3" transform="rotate(90 3 87)" fill="#D3C6C4"/>
<circle cx="3" cy="31" r="3" transform="rotate(90 3 31)" fill="#D3C6C4"/>
<circle cx="3" cy="143" r="3" transform="rotate(90 3 143)" fill="#D3C6C4"/>
<circle cx="3" cy="3" r="3" transform="rotate(90 3 3)" fill="#D3C6C4"/>
<circle cx="3" cy="115" r="3" transform="rotate(90 3 115)" fill="#D3C6C4"/>
<circle cx="3" cy="59" r="3" transform="rotate(90 3 59)" fill="#D3C6C4"/>
<circle cx="3" cy="171" r="3" transform="rotate(90 3 171)" fill="#D3C6C4"/>
<circle cx="59" cy="87" r="3" transform="rotate(90 59 87)" fill="#D3C6C4"/>
<circle cx="59" cy="31" r="3" transform="rotate(90 59 31)" fill="#D3C6C4"/>
<circle cx="59" cy="143" r="3" transform="rotate(90 59 143)" fill="#D3C6C4"/>
<circle cx="59" cy="3" r="3" transform="rotate(90 59 3)" fill="#D3C6C4"/>
<circle cx="59" cy="115" r="3" transform="rotate(90 59 115)" fill="#D3C6C4"/>
<circle cx="59" cy="59" r="3" transform="rotate(90 59 59)" fill="#D3C6C4"/>
<circle cx="59" cy="171" r="3" transform="rotate(90 59 171)" fill="#D3C6C4"/>
<circle cx="115" cy="87" r="3" transform="rotate(90 115 87)" fill="#D3C6C4"/>
<circle cx="115" cy="31" r="3" transform="rotate(90 115 31)" fill="#D3C6C4"/>
<circle cx="115" cy="143" r="3" transform="rotate(90 115 143)" fill="#D3C6C4"/>
<circle cx="115" cy="3" r="3" transform="rotate(90 115 3)" fill="#D3C6C4"/>
<circle cx="115" cy="115" r="3" transform="rotate(90 115 115)" fill="#D3C6C4"/>
<circle cx="115" cy="59" r="3" transform="rotate(90 115 59)" fill="#D3C6C4"/>
<circle cx="115" cy="171" r="3" transform="rotate(90 115 171)" fill="#D3C6C4"/>
</svg>
