<svg width="44" height="43" viewBox="0 0 44 43" fill="none" xmlns="http://www.w3.org/2000/svg">
<path fill-rule="evenodd" clip-rule="evenodd" d="M10.937 23.2475C10.8131 23.7117 10.5988 24.1468 10.3064 24.5281C10.014 24.9093 9.64937 25.2292 9.23325 25.4693C8.81713 25.7094 8.35774 25.8651 7.88136 25.9275C7.40499 25.9899 6.921 25.9577 6.45708 25.8328C5.99319 25.7087 5.55833 25.4944 5.17733 25.2021C4.79634 24.9098 4.4767 24.5453 4.23668 24.1294C3.99667 23.7135 3.84099 23.2544 3.77855 22.7782C3.71611 22.3021 3.74813 21.8184 3.87278 21.3546C3.99673 20.8906 4.21095 20.4555 4.5032 20.0744C4.79544 19.6932 5.15998 19.3734 5.57594 19.1332C5.99191 18.893 6.45115 18.7373 6.92738 18.6748C7.40361 18.6123 7.88749 18.6443 8.35134 18.7689L11.8849 19.7157L10.9384 23.2479L10.937 23.2475ZM12.7031 23.7207C12.827 23.2567 13.0413 22.8216 13.3335 22.4404C13.6258 22.0593 13.9903 21.7394 14.4063 21.4993C14.8222 21.2591 15.2815 21.1033 15.7577 21.0408C16.2339 20.9783 16.7178 21.0103 17.1817 21.135C17.6457 21.259 18.0808 21.4732 18.4619 21.7654C18.8431 22.0577 19.1629 22.4222 19.4031 22.8382C19.6433 23.2541 19.799 23.7134 19.8615 24.1896C19.924 24.6658 19.892 25.1497 19.7674 25.6136L17.4009 34.4453C17.277 34.9093 17.0627 35.3444 16.7705 35.7256C16.4782 36.1068 16.1137 36.4266 15.6977 36.6667C15.2818 36.9069 14.8225 37.0627 14.3463 37.1252C13.8701 37.1877 13.3862 37.1557 12.9223 37.031C12.4583 36.9071 12.0232 36.6928 11.6421 36.4006C11.2609 36.1083 10.9411 35.7438 10.7009 35.3278C10.4608 34.9119 10.305 34.4526 10.2425 33.9764C10.18 33.5002 10.212 33.0163 10.3366 32.5524L12.7031 23.7207Z" fill="#E01E5A"/>
<path fill-rule="evenodd" clip-rule="evenodd" d="M20.0356 10.4838C19.5715 10.3599 19.1363 10.1456 18.7551 9.85321C18.3738 9.56085 18.054 9.19617 17.8138 8.78005C17.5737 8.36393 17.418 7.90454 17.3556 7.42817C17.2932 6.95179 17.3254 6.4678 17.4503 6.00388C17.5743 5.53983 17.7885 5.10477 18.0807 4.7236C18.373 4.34242 18.7375 4.0226 19.1535 3.78245C19.5694 3.54229 20.0287 3.3865 20.5049 3.324C20.9811 3.26149 21.465 3.2935 21.9289 3.41818C22.3929 3.54213 22.828 3.75635 23.2092 4.0486C23.5903 4.34084 23.9101 4.70538 24.1503 5.12134C24.3905 5.53731 24.5463 5.99654 24.6088 6.47278C24.6713 6.94901 24.6393 7.43289 24.5146 7.89674L23.5674 11.4317L20.0367 10.4856L20.0356 10.4838ZM19.5553 12.2766C20.0193 12.4005 20.4544 12.6148 20.8356 12.907C21.2167 13.1993 21.5365 13.5638 21.7767 13.9798C22.0169 14.3957 22.1726 14.855 22.2352 15.3312C22.2977 15.8074 22.2657 16.2913 22.141 16.7552C22.017 17.2192 21.8028 17.6543 21.5106 18.0354C21.2183 18.4166 20.8538 18.7364 20.4378 18.9766C20.0218 19.2167 19.5626 19.3725 19.0864 19.435C18.6101 19.4975 18.1263 19.4655 17.6624 19.3409L8.80399 16.9672C8.34006 16.8433 7.90511 16.6292 7.524 16.3371C7.14289 16.0449 6.8231 15.6805 6.58292 15.2647C6.34274 14.8489 6.18688 14.3898 6.12425 13.9137C6.06162 13.4376 6.09345 12.9539 6.21792 12.4901C6.34186 12.026 6.55609 11.591 6.84833 11.2098C7.14058 10.8286 7.50511 10.5088 7.92108 10.2687C8.33704 10.0285 8.79628 9.87272 9.27251 9.81021C9.74874 9.74771 10.2326 9.77972 10.6965 9.9044L19.5563 12.2784L19.5553 12.2766Z" fill="#36C5F0"/>
<path fill-rule="evenodd" clip-rule="evenodd" d="M32.7655 19.602C32.8894 19.1378 33.1037 18.7026 33.3961 18.3214C33.6885 17.9402 34.0531 17.6203 34.4693 17.3802C34.8854 17.14 35.3448 16.9843 35.8211 16.9219C36.2975 16.8596 36.7815 16.8917 37.2454 17.0167C37.7095 17.1406 38.1445 17.3548 38.5257 17.6471C38.9069 17.9393 39.2267 18.3038 39.4669 18.7198C39.707 19.1358 39.8628 19.595 39.9253 20.0712C39.9878 20.5475 39.9558 21.0314 39.8311 21.4952C39.7072 21.9593 39.493 22.3943 39.2007 22.7755C38.9085 23.1567 38.5439 23.4765 38.128 23.7166C37.712 23.9568 37.2528 24.1126 36.7765 24.1751C36.3003 24.2376 35.8164 24.2056 35.3526 24.0809L31.819 23.1341L32.7651 19.6034L32.7655 19.602ZM30.9994 19.1288C30.8755 19.5928 30.6612 20.0279 30.369 20.409C30.0767 20.7902 29.7122 21.11 29.2962 21.3502C28.8803 21.5903 28.421 21.7461 27.9448 21.8086C27.4686 21.8711 26.9847 21.8391 26.5208 21.7144C26.0566 21.5907 25.6214 21.3765 25.24 21.0843C24.8587 20.7921 24.5387 20.4276 24.2984 20.0115C24.0581 19.5955 23.9022 19.1362 23.8396 18.6598C23.777 18.1835 23.809 17.6995 23.9337 17.2355L26.3074 8.3771C26.4313 7.91293 26.6456 7.47777 26.938 7.09653C27.2303 6.71528 27.595 6.39544 28.0111 6.1553C28.4273 5.91517 28.8867 5.75945 29.363 5.69708C29.8394 5.6347 30.3234 5.66688 30.7873 5.79178C31.2514 5.91573 31.6864 6.12995 32.0676 6.4222C32.4488 6.71444 32.7686 7.07897 33.0087 7.49494C33.2489 7.91091 33.4047 8.37014 33.4672 8.84637C33.5297 9.3226 33.4977 9.80649 33.373 10.2703L30.999 19.1302L30.9994 19.1288Z" fill="#2EB67D"/>
<path fill-rule="evenodd" clip-rule="evenodd" d="M23.674 32.339C24.138 32.463 24.5731 32.6772 24.9543 32.9694C25.3354 33.2617 25.6553 33.6262 25.8954 34.0422C26.1356 34.4581 26.2914 34.9174 26.3539 35.3936C26.4164 35.8698 26.3844 36.3537 26.2597 36.8176C26.1359 37.2818 25.9218 37.717 25.6296 38.0984C25.3374 38.4798 24.9728 38.7997 24.5568 39.04C24.1408 39.2803 23.6814 39.4362 23.2051 39.4988C22.7287 39.5614 22.2447 39.5294 21.7807 39.4047C21.3166 39.2807 20.8814 39.0664 20.5002 38.774C20.1189 38.4817 19.7991 38.117 19.559 37.7009C19.3188 37.2848 19.1631 36.8254 19.1007 36.349C19.0383 35.8726 19.0705 35.3886 19.1954 34.9247L20.1419 31.3926L23.674 32.339ZM24.1472 30.5729C23.6832 30.449 23.2481 30.2348 22.8669 29.9425C22.4857 29.6503 22.1659 29.2857 21.9258 28.8698C21.6856 28.4538 21.5298 27.9946 21.4673 27.5184C21.4048 27.0421 21.4368 26.5582 21.5615 26.0944C21.6855 25.6303 21.8997 25.1953 22.1919 24.8141C22.4842 24.4329 22.8487 24.1131 23.2647 23.873C23.6806 23.6328 24.1399 23.477 24.6161 23.4145C25.0923 23.352 25.5762 23.384 26.0401 23.5087L34.8985 25.8823C35.3625 26.0062 35.7976 26.2205 36.1788 26.5127C36.5599 26.805 36.8798 27.1695 37.1199 27.5855C37.3601 28.0014 37.5159 28.4607 37.5784 28.9369C37.6409 29.4131 37.6089 29.897 37.4842 30.3609C37.3602 30.8249 37.146 31.26 36.8538 31.6411C36.5615 32.0223 36.197 32.3421 35.781 32.5823C35.3651 32.8224 34.9058 32.9782 34.4296 33.0407C33.9534 33.1032 33.4695 33.0712 33.0056 32.9466L24.1472 30.5729Z" fill="#ECB22E"/>
</svg>
