<svg width="20" height="20" viewBox="0 0 20 20" fill="none" xmlns="http://www.w3.org/2000/svg">
<path d="M19.2837 7.27572L13.3329 6.41087L10.6728 1.0179C10.6001 0.870248 10.4806 0.750717 10.3329 0.67806C9.96261 0.495248 9.51261 0.647592 9.32745 1.0179L6.6673 6.41087L0.716512 7.27572C0.552449 7.29915 0.402449 7.3765 0.287605 7.49369C0.148765 7.63639 0.0722582 7.82837 0.0748951 8.02746C0.0775319 8.22654 0.159097 8.41643 0.301668 8.5554L4.60714 12.7531L3.58995 18.6804C3.5661 18.8183 3.58136 18.9601 3.634 19.0897C3.68663 19.2194 3.77455 19.3317 3.88777 19.4139C4.00099 19.4962 4.13498 19.545 4.27456 19.555C4.41414 19.5649 4.55371 19.5356 4.67745 19.4702L10.0001 16.6718L15.3228 19.4702C15.4681 19.5476 15.6368 19.5734 15.7986 19.5452C16.2064 19.4749 16.4806 19.0882 16.4103 18.6804L15.3931 12.7531L19.6986 8.5554C19.8157 8.44056 19.8931 8.29056 19.9165 8.1265C19.9798 7.71634 19.6939 7.33665 19.2837 7.27572Z" fill="#FA9B44"/>
</svg>
