<svg width="50" height="50" viewBox="0 0 50 50" fill="none" xmlns="http://www.w3.org/2000/svg">
<path d="M25 47.5L30 42.5M36.25 42.5C37.9076 42.5 39.4973 41.8415 40.6694 40.6694C41.8415 39.4973 42.5 37.9076 42.5 36.25C42.5 34.5924 41.8415 33.0027 40.6694 31.8306C39.4973 30.6585 37.9076 30 36.25 30C34.5924 30 33.0027 30.6585 31.8306 31.8306C30.6585 33.0027 30 34.5924 30 36.25C30 37.9076 30.6585 39.4973 31.8306 40.6694C33.0027 41.8415 34.5924 42.5 36.25 42.5V42.5ZM20 7.5L25 2.5L20 7.5ZM13.75 20C15.4076 20 16.9973 19.3415 18.1694 18.1694C19.3415 16.9973 20 15.4076 20 13.75C20 12.0924 19.3415 10.5027 18.1694 9.33058C16.9973 8.15848 15.4076 7.5 13.75 7.5C12.0924 7.5 10.5027 8.15848 9.33058 9.33058C8.15848 10.5027 7.5 12.0924 7.5 13.75C7.5 15.4076 8.15848 16.9973 9.33058 18.1694C10.5027 19.3415 12.0924 20 13.75 20V20ZM15 35L35 15L15 35ZM8.75 47.5C10.4076 47.5 11.9973 46.8415 13.1694 45.6694C14.3415 44.4973 15 42.9076 15 41.25C15 39.5924 14.3415 38.0027 13.1694 36.8306C11.9973 35.6585 10.4076 35 8.75 35C7.0924 35 5.50269 35.6585 4.33058 36.8306C3.15848 38.0027 2.5 39.5924 2.5 41.25C2.5 42.9076 3.15848 44.4973 4.33058 45.6694C5.50269 46.8415 7.0924 47.5 8.75 47.5V47.5ZM41.25 15C42.9076 15 44.4973 14.3415 45.6694 13.1694C46.8415 11.9973 47.5 10.4076 47.5 8.75C47.5 7.0924 46.8415 5.50269 45.6694 4.33058C44.4973 3.15848 42.9076 2.5 41.25 2.5C39.5924 2.5 38.0027 3.15848 36.8306 4.33058C35.6585 5.50269 35 7.0924 35 8.75C35 10.4076 35.6585 11.9973 36.8306 13.1694C38.0027 14.3415 39.5924 15 41.25 15Z" stroke="#EE4F3C" stroke-width="4" stroke-linecap="round" stroke-linejoin="round"/>
</svg>
