<svg width="181" height="266" viewBox="0 0 181 266" fill="none" xmlns="http://www.w3.org/2000/svg">
<circle cx="47.3908" cy="133" r="4.58621" transform="rotate(90 47.3908 133)" fill="#D3C6C4"/>
<circle cx="47.3908" cy="47.3908" r="4.58621" transform="rotate(90 47.3908 47.3908)" fill="#D3C6C4"/>
<circle cx="47.3908" cy="218.609" r="4.58621" transform="rotate(90 47.3908 218.609)" fill="#D3C6C4"/>
<circle cx="47.3908" cy="4.58621" r="4.58621" transform="rotate(90 47.3908 4.58621)" fill="#D3C6C4"/>
<circle cx="47.3908" cy="175.805" r="4.58621" transform="rotate(90 47.3908 175.805)" fill="#D3C6C4"/>
<circle cx="47.3908" cy="90.1954" r="4.58621" transform="rotate(90 47.3908 90.1954)" fill="#D3C6C4"/>
<circle cx="47.3908" cy="261.414" r="4.58621" transform="rotate(90 47.3908 261.414)" fill="#D3C6C4"/>
<circle cx="133" cy="133" r="4.58621" transform="rotate(90 133 133)" fill="#D3C6C4"/>
<circle cx="133" cy="47.3908" r="4.58621" transform="rotate(90 133 47.3908)" fill="#D3C6C4"/>
<circle cx="133" cy="218.609" r="4.58621" transform="rotate(90 133 218.609)" fill="#D3C6C4"/>
<circle cx="133" cy="4.58621" r="4.58621" transform="rotate(90 133 4.58621)" fill="#D3C6C4"/>
<circle cx="133" cy="175.805" r="4.58621" transform="rotate(90 133 175.805)" fill="#D3C6C4"/>
<circle cx="133" cy="90.1954" r="4.58621" transform="rotate(90 133 90.1954)" fill="#D3C6C4"/>
<circle cx="133" cy="261.414" r="4.58621" transform="rotate(90 133 261.414)" fill="#D3C6C4"/>
<circle cx="4.58622" cy="133" r="4.58621" transform="rotate(90 4.58622 133)" fill="#D3C6C4"/>
<circle cx="4.58622" cy="47.3908" r="4.58621" transform="rotate(90 4.58622 47.3908)" fill="#D3C6C4"/>
<circle cx="4.58622" cy="218.609" r="4.58621" transform="rotate(90 4.58622 218.609)" fill="#D3C6C4"/>
<circle cx="4.58622" cy="4.58621" r="4.58621" transform="rotate(90 4.58622 4.58621)" fill="#D3C6C4"/>
<circle cx="4.58622" cy="175.805" r="4.58621" transform="rotate(90 4.58622 175.805)" fill="#D3C6C4"/>
<circle cx="4.58622" cy="90.1954" r="4.58621" transform="rotate(90 4.58622 90.1954)" fill="#D3C6C4"/>
<circle cx="4.58622" cy="261.414" r="4.58621" transform="rotate(90 4.58622 261.414)" fill="#D3C6C4"/>
<circle cx="90.1954" cy="133" r="4.58621" transform="rotate(90 90.1954 133)" fill="#D3C6C4"/>
<circle cx="90.1954" cy="47.3908" r="4.58621" transform="rotate(90 90.1954 47.3908)" fill="#D3C6C4"/>
<circle cx="90.1954" cy="218.609" r="4.58621" transform="rotate(90 90.1954 218.609)" fill="#D3C6C4"/>
<circle cx="90.1954" cy="4.58621" r="4.58621" transform="rotate(90 90.1954 4.58621)" fill="#D3C6C4"/>
<circle cx="90.1954" cy="175.805" r="4.58621" transform="rotate(90 90.1954 175.805)" fill="#D3C6C4"/>
<circle cx="90.1954" cy="90.1954" r="4.58621" transform="rotate(90 90.1954 90.1954)" fill="#D3C6C4"/>
<circle cx="90.1954" cy="261.414" r="4.58621" transform="rotate(90 90.1954 261.414)" fill="#D3C6C4"/>
<circle cx="175.805" cy="133" r="4.58621" transform="rotate(90 175.805 133)" fill="#D3C6C4"/>
<circle cx="175.805" cy="47.3908" r="4.58621" transform="rotate(90 175.805 47.3908)" fill="#D3C6C4"/>
<circle cx="175.805" cy="218.609" r="4.58621" transform="rotate(90 175.805 218.609)" fill="#D3C6C4"/>
<circle cx="175.805" cy="4.58621" r="4.58621" transform="rotate(90 175.805 4.58621)" fill="#D3C6C4"/>
<circle cx="175.805" cy="175.805" r="4.58621" transform="rotate(90 175.805 175.805)" fill="#D3C6C4"/>
<circle cx="175.805" cy="90.1954" r="4.58621" transform="rotate(90 175.805 90.1954)" fill="#D3C6C4"/>
<circle cx="175.805" cy="261.414" r="4.58621" transform="rotate(90 175.805 261.414)" fill="#D3C6C4"/>
</svg>
