<svg width="60" height="50" viewBox="0 0 60 50" fill="none" xmlns="http://www.w3.org/2000/svg">
<path d="M24.375 0.75C22.8832 0.75 21.4524 1.34263 20.3975 2.39752C19.3426 3.45242 18.75 4.88316 18.75 6.375V8.25H5.625C4.13316 8.25 2.70242 8.84263 1.64752 9.89752C0.592632 10.9524 0 12.3832 0 13.875L0 43.875C0 45.3668 0.592632 46.7976 1.64752 47.8525C2.70242 48.9074 4.13316 49.5 5.625 49.5H54.375C55.8668 49.5 57.2976 48.9074 58.3525 47.8525C59.4074 46.7976 60 45.3668 60 43.875V13.875C60 12.3832 59.4074 10.9524 58.3525 9.89752C57.2976 8.84263 55.8668 8.25 54.375 8.25H41.25V6.375C41.25 4.88316 40.6574 3.45242 39.6025 2.39752C38.5476 1.34263 37.1168 0.75 35.625 0.75H24.375ZM24.375 4.5H35.625C36.1223 4.5 36.5992 4.69754 36.9508 5.04918C37.3025 5.40081 37.5 5.87772 37.5 6.375V8.25H22.5V6.375C22.5 5.87772 22.6975 5.40081 23.0492 5.04918C23.4008 4.69754 23.8777 4.5 24.375 4.5ZM31.4475 30.4275L56.25 23.8162V43.875C56.25 44.3723 56.0525 44.8492 55.7008 45.2008C55.3492 45.5525 54.8723 45.75 54.375 45.75H5.625C5.12772 45.75 4.65081 45.5525 4.29917 45.2008C3.94754 44.8492 3.75 44.3723 3.75 43.875V23.8125L28.5525 30.4275C29.501 30.6801 30.499 30.6801 31.4475 30.4275ZM5.625 12H54.375C54.8723 12 55.3492 12.1975 55.7008 12.5492C56.0525 12.9008 56.25 13.3777 56.25 13.875V19.935L30.4837 26.805C30.1668 26.8896 29.8332 26.8896 29.5162 26.805L3.75 19.935V13.875C3.75 13.3777 3.94754 12.9008 4.29917 12.5492C4.65081 12.1975 5.12772 12 5.625 12Z" fill="#EE4F3C"/>
</svg>
