<svg width="52" height="53" viewBox="0 0 52 53" fill="none" xmlns="http://www.w3.org/2000/svg">
<g clip-path="url(#clip0_1_231)">
<path d="M35.5252 15.0031L34.5631 15.755L34.5244 15.7054L23.7753 24.1061L27.509 28.8835L34.2588 23.6083C35.4475 27.1589 34.3616 31.2233 31.2426 33.6609C27.2852 36.7537 21.569 36.0527 18.4761 32.0953C15.3832 28.1378 16.0842 22.4216 20.0417 19.3288C21.8684 17.9011 24.0689 17.2914 26.2141 17.4281L26.9521 11.4098C23.2654 11.0889 19.4539 12.0928 16.308 14.5514C9.71229 19.7062 8.54397 29.2332 13.6987 35.8289C18.8535 42.4247 28.3805 43.593 34.9763 38.4382C41.572 33.2835 42.7403 23.7565 37.5856 17.1607C36.9597 16.3599 36.2664 15.6426 35.5252 15.0031Z" fill="#FFC107"/>
<path d="M10.7313 29.1934L16.9043 29.0045C15.9117 25.5459 17.0326 21.6803 20.0417 19.3286C21.8684 17.9009 24.069 17.2912 26.2141 17.4279L26.9521 11.4096C23.2654 11.0887 19.454 12.0926 16.3081 14.5512C11.7206 18.1364 9.76634 23.8355 10.7313 29.1934Z" fill="#FF3D00"/>
<path d="M34.9763 38.4381C38.0613 36.0271 39.9417 32.6558 40.5606 29.0796L34.4195 28.8405C33.9168 30.7517 32.8007 32.4451 31.2426 33.6608C28.1361 36.0886 23.9504 36.1692 20.7963 34.1815L19.2468 40.2261C24.2462 42.5492 30.3345 42.0658 34.9763 38.4381Z" fill="#4CAF50"/>
<path d="M35.5252 15.003L34.5631 15.7548L34.5244 15.7053L23.7753 24.106L27.509 28.8833L34.2588 23.6082C34.8221 25.2999 34.8776 27.1196 34.4182 28.8424L34.419 28.8398L40.5601 29.0789C40.4843 29.521 42.2526 23.1322 37.5856 17.1605C36.9597 16.3597 36.2664 15.6424 35.5252 15.003Z" fill="#1976D2"/>
</g>
<defs>
<clipPath id="clip0_1_231">
<rect width="36.3797" height="36.3797" fill="white" transform="translate(0.109116 23.3635) rotate(-38.0086)"/>
</clipPath>
</defs>
</svg>
