<svg width="57" height="56" viewBox="0 0 57 56" fill="none" xmlns="http://www.w3.org/2000/svg">
<g clip-path="url(#clip0_1_246)">
<path d="M36.5909 41.76L28.6935 29.4763C29.0717 29.2787 29.426 29.0747 29.7877 28.8422C31.5023 27.7399 32.8275 26.2538 33.6793 24.5708L42.3482 38.0546C43.0891 39.207 43.3628 40.2337 43.1951 41.144C43.0284 42.0497 42.5067 42.7853 41.6501 43.336C40.809 43.8768 39.9582 44.0235 39.0351 43.7928C38.1419 43.5685 37.32 42.8942 36.5909 41.76ZM17.6982 12.303C20.4612 8.75719 24.5658 6.21337 29.269 6.81954C30.1694 6.97181 31.2353 7.2059 31.9863 7.80691C32.9184 8.57876 30.841 8.39859 30.5656 8.38938C29.162 8.39425 27.8269 8.49964 26.4785 8.84939C19.3187 10.9064 15.7365 17.8103 15.458 25.1342C15.4199 28.3171 15.972 31.2869 16.8456 34.3809C16.9436 34.7182 17.1119 35.1311 17.1158 35.4793C17.1418 35.8648 16.5564 34.7571 16.5348 34.7234C15.9649 33.578 15.5249 32.4006 15.1368 31.1898C13.2237 24.6329 13.8742 17.7335 17.6996 12.3021L17.6982 12.303ZM30.9693 17.7575C31.3267 18.3135 31.5712 18.9344 31.6886 19.5849C31.8061 20.2354 31.7943 20.9026 31.6539 21.5485C31.5135 22.1944 31.2473 22.8063 30.8704 23.3494C30.4935 23.8924 30.0134 24.3558 29.4574 24.7133C28.9014 25.0708 28.2805 25.3152 27.63 25.4327C26.9795 25.5501 26.3123 25.5384 25.6664 25.398C25.0205 25.2576 24.4086 24.9913 23.8655 24.6145C23.3225 24.2376 22.8591 23.7574 22.5016 23.2014C22.1442 22.6455 21.8997 22.0245 21.7822 21.374C21.6648 20.7236 21.6765 20.0563 21.8169 19.4104C21.9573 18.7645 22.2236 18.1526 22.6004 17.6096C22.9773 17.0666 23.4575 16.6031 24.0135 16.2456C24.5694 15.8882 25.1904 15.6437 25.8409 15.5263C26.4913 15.4088 27.1586 15.4206 27.8045 15.561C28.4504 15.7014 29.0623 15.9676 29.6053 16.3445C30.1483 16.7214 30.6118 17.2015 30.9693 17.7575Z" fill="#095CF3"/>
</g>
<defs>
<clipPath id="clip0_1_246">
<rect width="40" height="40" fill="white" transform="translate(0.941071 21.9548) rotate(-32.7375)"/>
</clipPath>
</defs>
</svg>
