<svg width="14" height="14" viewBox="0 0 14 14" fill="none" xmlns="http://www.w3.org/2000/svg">
<path d="M11.8322 4.84324L8.67651 4.38461L7.26582 1.52471C7.22729 1.4464 7.1639 1.38302 7.0856 1.34449C6.88922 1.24754 6.65059 1.32833 6.5524 1.52471L5.14171 4.38461L1.98599 4.84324C1.89899 4.85567 1.81944 4.89669 1.75854 4.95883C1.68491 5.03451 1.64434 5.13632 1.64574 5.24189C1.64714 5.34747 1.69039 5.44817 1.766 5.52187L4.0492 7.7479L3.50978 10.8912C3.49714 10.9643 3.50523 11.0395 3.53314 11.1083C3.56106 11.177 3.60768 11.2366 3.66772 11.2802C3.72776 11.3238 3.79882 11.3497 3.87283 11.355C3.94685 11.3603 4.02087 11.3447 4.08649 11.31L6.90911 9.82602L9.73173 11.31C9.80879 11.3511 9.89828 11.3647 9.98404 11.3498C10.2003 11.3125 10.3457 11.1074 10.3084 10.8912L9.76902 7.7479L12.0522 5.52187C12.1144 5.46096 12.1554 5.38142 12.1678 5.29442C12.2014 5.07691 12.0497 4.87556 11.8322 4.84324Z" fill="#FF993B"/>
</svg>
